# xmcd
#
# Track frame offsets:
#        150
#        19848
#        40052
#        57663
#        79501
#        97125
#        110368
#        125995
#        145963
#        162259
#        184904
#        202665
#        222225
#        241789
#
# Disc length: 3568 seconds
#
# Revision: 0
# Processed by: cddbd v1.5.1PL0 Copyright (c) Steve Scherf et al.
# Submitted via: ExactAudioCopy v0.95a5
#
DISCID=c50dee0e
DTITLE=Various Artist - earthquake 2004 THE HARDCORE EDITION
DYEAR=2004
DGENRE=Hardcore
TTITLE0=DJ Niel - Hostile Artillery
TTITLE1=DJ Neophyte and Scott Brown - Blast Your Ass
TTITLE2=The Playah - Who Ya Rocking With
TTITLE3=Tommyknocker - Revolution
TTITLE4=Bodylotion - Make You Dance(The Playah Remix)
TTITLE5=DJ Niel - Never Go Back
TTITLE6=Baco Brothers - Can't Stop(Viper Remix and Reactor Remix)
TTITLE7=Evil Activities and DJ Neophyte - To You Who Doubt Me
TTITLE8=Omar Santana feat. H2OH DJ Squad - Mosh Pit
TTITLE9=Endymion - Rock The Part-E
TTITLE10=Scott Brown - Boomstick
TTITLE11=Mecano Twins - Sinapse(Shadow Mix)
TTITLE12=Scott Brown feat. DJ Neophyte - Self Destruction(DJ Neophyte
TTITLE12=Remix)
TTITLE13=DJ Neophyte and Evil Activities - Alles Kapot
EXTD=
EXTT0=
EXTT1=
EXTT2=
EXTT3=
EXTT4=
EXTT5=
EXTT6=
EXTT7=
EXTT8=
EXTT9=
EXTT10=
EXTT11=
EXTT12=
EXTT13=
PLAYORDER=
